<svg width="64" height="64" viewBox="0 0 64 64" fill="none" xmlns="http://www.w3.org/2000/svg">
<rect width="64" height="64" rx="32" fill="white"/>
<rect x="0.5" y="0.5" width="63" height="63" rx="31.5" stroke="black" stroke-opacity="0.2"/>
<path d="M26.1668 26.1667H37.5418C39.9996 26.1667 41.2285 26.1667 42.1113 26.7565C42.4935 27.0119 42.8216 27.34 43.077 27.7222C43.6668 28.605 43.6668 29.8339 43.6668 32.2917C43.6668 36.388 43.6668 38.4362 42.6837 39.9075C42.2581 40.5444 41.7113 41.0913 41.0743 41.5169C39.603 42.5 37.5548 42.5 33.4585 42.5H32.0002C26.5004 42.5 23.7506 42.5 22.042 40.7915C20.3335 39.0829 20.3335 36.3331 20.3335 30.8333V27.2683C20.3335 25.1491 20.3335 24.0895 20.7772 23.2944C21.0935 22.7276 21.5611 22.26 22.1279 21.9437C22.923 21.5 23.9826 21.5 26.1018 21.5C27.4595 21.5 28.1384 21.5 28.7326 21.7228C30.0894 22.2316 30.6489 23.4642 31.2612 24.6886L32.0002 26.1667" stroke="#223CD3" stroke-width="1.2" stroke-linecap="round"/>
</svg>
